<svg width="46" height="74" viewBox="0 0 46 74" fill="none" xmlns="http://www.w3.org/2000/svg">
<g filter="url(#filter0_d_122_1016)">
<g filter="url(#filter1_d_122_1016)">
<path d="M13.8745 35.8221C13.7013 35.8248 13.5303 35.8613 13.3713 35.9293C13.2123 35.9973 13.0684 36.0955 12.9479 36.2184C12.8273 36.3414 12.7325 36.4865 12.6688 36.6457C12.605 36.8048 12.5737 36.9749 12.5765 37.1461V64.6863C12.576 64.9431 12.6523 65.1943 12.7959 65.4084C12.9395 65.6225 13.144 65.7897 13.3836 65.8894C13.6232 65.9891 13.8873 66.0167 14.1426 65.9686C14.398 65.9205 14.6333 65.7988 14.819 65.619L22.7101 58.0304L30.6118 65.619C30.7974 65.7988 31.0327 65.9205 31.2881 65.9686C31.5435 66.0167 31.8076 65.9891 32.0472 65.8894C32.2868 65.7897 32.4912 65.6225 32.6348 65.4084C32.7784 65.1943 32.8548 64.9431 32.8543 64.6863V37.1461C32.8543 36.8005 32.7153 36.4688 32.4679 36.2245C32.2206 35.9801 31.885 35.8431 31.5352 35.8431C31.1853 35.8431 30.8498 35.9801 30.6024 36.2245C30.355 36.4688 30.216 36.8005 30.216 37.1461L24.8624 38.9979H22.1322C22.1322 38.9979 21.8591 38.7287 20.767 38.9979C20.4237 38.9979 19.6481 38.7615 19.4019 38.9979L18.0368 37.9212L15.2147 37.1461C15.2176 36.9714 15.1849 36.798 15.1185 36.6361C15.0522 36.4742 14.9536 36.327 14.8286 36.2035C14.7035 36.08 14.5546 35.9827 14.3907 35.9172C14.2269 35.8517 14.0513 35.8193 13.8745 35.8221Z" fill="#900D90"/>
</g>
<g filter="url(#filter2_d_122_1016)">
<path d="M6.56471 18.5439C6.31764 19.4659 4.09039 20.0134 4.00192 20.926C3.91344 21.8385 5.99323 22.8119 6.06335 23.7149C6.12046 24.6665 4.18695 25.8648 4.36712 26.7453C4.59583 27.6388 6.85767 27.9328 7.20944 28.7553C7.54821 29.6262 6.09302 31.3689 6.55485 32.1688C7.00368 33.0173 9.25345 32.5798 9.88688 33.3217C10.4718 34.0506 9.59545 36.1564 10.3164 36.7657C10.9889 37.362 13.0064 36.2381 13.8019 36.7634C14.5619 37.2271 14.4135 39.5279 15.2966 39.9206C16.1796 40.3132 17.7319 38.5966 18.6054 38.8307C19.5275 39.0777 20.075 41.305 20.9875 41.3934C21.9 41.4819 22.8734 39.4021 23.7764 39.332C24.728 39.2749 25.9263 41.2084 26.8068 41.0282C27.7003 40.7995 27.9943 38.5377 28.8168 38.1859C29.6877 37.8471 31.4304 39.3023 32.2303 38.8405C33.0432 38.3301 32.6058 36.0803 33.3347 35.4954C34.0635 34.9105 36.1693 35.7868 36.7786 35.0659C37.3749 34.3934 36.2511 32.3758 36.7763 31.5803C37.24 30.8204 39.5409 30.9687 39.9335 30.0857C40.3262 29.2026 38.6096 27.6504 38.8436 26.7768C39.0907 25.8548 41.3179 25.3073 41.4064 24.3947C41.4949 23.4822 39.4151 22.5088 39.345 21.6058C39.2879 20.6542 41.2214 19.4559 41.0412 18.5754C40.8125 17.6819 38.5507 17.3879 38.1989 16.5654C37.8601 15.6945 39.3153 13.9518 38.8535 13.1519C38.3916 12.352 36.1419 12.7894 35.544 12.1091C34.9591 11.3802 35.8354 9.27438 35.1144 8.66509C34.442 8.0688 32.4244 9.19264 31.6289 8.6674C30.8689 8.2037 31.0173 5.90283 30.1343 5.51018C29.2512 5.11753 27.699 6.83417 26.8254 6.60011C25.9034 6.35305 25.3559 4.1258 24.4433 4.03732C23.5308 3.94885 22.5574 6.02865 21.6544 6.09877C20.7029 6.15588 19.5045 4.22236 18.624 4.40254C17.7305 4.63125 17.4365 6.8931 16.6141 7.24487C15.7431 7.58365 14.0005 6.12845 13.2005 6.59029C12.4006 7.05213 12.8381 9.30191 12.1577 9.89982C11.4288 10.4847 9.32305 9.60839 8.71376 10.3294C8.11747 11.0018 9.24129 13.0194 8.71605 13.8149C8.25234 14.5749 5.9515 14.4265 5.55885 15.3096C5.08214 16.1181 6.75024 17.6573 6.56471 18.5439Z" fill="#284EE8"/>
</g>
<path d="M18.0067 11.0902C20.4749 11.203 22.9507 11.3233 25.4189 11.4361C26.8892 11.5038 28.3594 11.5789 29.8297 11.6015C30.4772 11.609 30.8429 11.7895 31.1247 12.4361C32.6788 15.9699 34.3014 19.4737 35.9088 22.985C36.0231 23.2406 36.0307 23.4211 35.8631 23.6617C33.4939 27.0075 31.1324 30.3609 28.786 33.7218C28.6184 33.9549 28.4661 34.0226 28.169 34C26.7673 33.8947 25.358 33.8271 23.9563 33.7368C22.1813 33.6241 20.4139 33.5038 18.6466 33.391C17.6562 33.3308 16.6735 33.2632 15.6832 33.2256C15.447 33.218 15.3251 33.1429 15.2337 32.9248C13.5121 28.8947 11.7904 24.8722 10.0612 20.8496C9.96212 20.609 9.98498 20.4436 10.1526 20.2406C12.5751 17.2707 14.9976 14.2857 17.4277 11.3083C17.5496 11.1579 17.7857 11.0977 17.961 11C17.9762 11.0301 17.9914 11.0602 18.0067 11.0902ZM27.3082 17.7368C24.0248 19.1504 20.871 20.5188 17.6258 21.9173C20.4063 24.0376 23.1107 26.1128 25.9065 28.2406C26.3711 24.7143 26.8358 21.2782 27.3082 17.7368ZM34.8499 23.3233C32.9302 21.3985 31.0638 19.5263 29.0984 17.5639C28.588 21.2932 28.0928 24.8947 27.5976 28.5038C27.6281 28.5263 27.6586 28.5489 27.6814 28.5639C30.0582 26.8346 32.4274 25.0977 34.8499 23.3233ZM16.0717 31.8722C18.837 31.1654 21.5109 30.4812 24.3067 29.7594C21.4652 27.7519 18.7151 25.812 15.9727 23.8797C15.9422 23.9023 15.9041 23.9173 15.8736 23.9399C15.9346 26.5564 16.0031 29.1729 16.0717 31.8722ZM16.8564 19.3759C20.0178 18.1504 23.065 16.9699 26.1045 15.7895C26.1045 15.7519 26.1045 15.7143 26.1121 15.6692C23.583 14.594 21.0538 13.5188 18.4866 12.4286C17.9381 14.7444 17.4125 17 16.8564 19.3759ZM14.5024 30.1579C14.5329 30.1504 14.5634 30.1429 14.6014 30.1429C14.6091 30.0451 14.6167 29.9474 14.6167 29.8496C14.571 27.3609 14.51 24.8722 14.4719 22.3835C14.4643 22.1353 14.3577 22.0602 14.1444 22.015C13.2759 21.8421 12.4151 21.6617 11.5467 21.4812C11.2953 21.4286 11.0439 21.3835 10.7087 21.3158C11.9961 24.3233 13.2531 27.2406 14.5024 30.1579ZM16.4678 13.3158C16.4297 13.3008 16.3993 13.2857 16.3612 13.2707C14.571 15.5038 12.7731 17.7444 10.9296 20.0451C12.2323 20.3158 13.4359 20.5639 14.67 20.8195C15.2794 18.2782 15.8736 15.797 16.4678 13.3158ZM33.6082 26.0752C33.5853 26.0526 33.5625 26.0301 33.5396 26.0075C33.4787 26.0376 33.4101 26.0526 33.3568 26.0977C31.4752 27.4812 29.6012 28.8647 27.7195 30.2406C27.5443 30.3684 27.5519 30.4812 27.6433 30.6466C27.9785 31.2782 28.2985 31.9173 28.6337 32.5489C28.6718 32.6241 28.7327 32.6842 28.8089 32.7895C30.4239 30.5263 32.016 28.3008 33.6082 26.0752ZM21.6252 11.7519C21.6176 11.782 21.6176 11.812 21.6099 11.8421C21.6404 11.8647 21.6633 11.8872 21.7014 11.9023C23.6896 12.7669 25.6855 13.6241 27.6738 14.4962C27.91 14.6015 28.009 14.5338 28.1157 14.3308C28.2832 13.9925 28.4813 13.6692 28.6565 13.3459C28.8774 12.9474 29.0984 12.5414 29.3574 12.0677C26.7216 11.9549 24.1772 11.8571 21.6252 11.7519ZM27.4529 33.391C27.0491 32.6241 26.6835 31.9549 26.3483 31.2782C26.2264 31.0376 26.0893 30.9925 25.8379 31.0526C23.7353 31.6015 21.6328 32.1429 19.5302 32.6917C19.4388 32.7143 19.3474 32.7669 19.256 32.8045C19.2636 32.8271 19.2712 32.8496 19.2789 32.8797C21.9756 33.0451 24.6571 33.2105 27.4529 33.391ZM30.8276 13.2556C30.7591 13.3158 30.721 13.3308 30.7057 13.3609C30.3477 14.0752 29.982 14.7895 29.6469 15.5188C29.6088 15.609 29.6773 15.8045 29.7611 15.8872C31.0486 17.1955 32.3512 18.4962 33.6463 19.797C33.7225 19.8722 33.8139 19.9398 33.9053 20.0075C33.9281 19.985 33.9586 19.9624 33.9815 19.9398C32.9378 17.7218 31.8865 15.4962 30.8276 13.2556Z" fill="white"/>
</g>
<defs>
<filter id="filter0_d_122_1016" x="-0.000854492" y="4.03455" width="45.41" height="69.957" filterUnits="userSpaceOnUse" color-interpolation-filters="sRGB">
<feFlood flood-opacity="0" result="BackgroundImageFix"/>
<feColorMatrix in="SourceAlpha" type="matrix" values="0 0 0 0 0 0 0 0 0 0 0 0 0 0 0 0 0 0 127 0" result="hardAlpha"/>
<feOffset dy="4"/>
<feGaussianBlur stdDeviation="2"/>
<feComposite in2="hardAlpha" operator="out"/>
<feColorMatrix type="matrix" values="0 0 0 0 0 0 0 0 0 0 0 0 0 0 0 0 0 0 0.25 0"/>
<feBlend mode="normal" in2="BackgroundImageFix" result="effect1_dropShadow_122_1016"/>
<feBlend mode="normal" in="SourceGraphic" in2="effect1_dropShadow_122_1016" result="shape"/>
</filter>
<filter id="filter1_d_122_1016" x="10.5763" y="33.8219" width="24.278" height="34.1697" filterUnits="userSpaceOnUse" color-interpolation-filters="sRGB">
<feFlood flood-opacity="0" result="BackgroundImageFix"/>
<feColorMatrix in="SourceAlpha" type="matrix" values="0 0 0 0 0 0 0 0 0 0 0 0 0 0 0 0 0 0 127 0" result="hardAlpha"/>
<feOffset/>
<feGaussianBlur stdDeviation="1"/>
<feComposite in2="hardAlpha" operator="out"/>
<feColorMatrix type="matrix" values="0 0 0 0 1 0 0 0 0 1 0 0 0 0 1 0 0 0 0.5 0"/>
<feBlend mode="normal" in2="BackgroundImageFix" result="effect1_dropShadow_122_1016"/>
<feBlend mode="normal" in="SourceGraphic" in2="effect1_dropShadow_122_1016" result="shape"/>
</filter>
<filter id="filter2_d_122_1016" x="1.99915" y="2.03455" width="41.41" height="41.3617" filterUnits="userSpaceOnUse" color-interpolation-filters="sRGB">
<feFlood flood-opacity="0" result="BackgroundImageFix"/>
<feColorMatrix in="SourceAlpha" type="matrix" values="0 0 0 0 0 0 0 0 0 0 0 0 0 0 0 0 0 0 127 0" result="hardAlpha"/>
<feOffset/>
<feGaussianBlur stdDeviation="1"/>
<feComposite in2="hardAlpha" operator="out"/>
<feColorMatrix type="matrix" values="0 0 0 0 1 0 0 0 0 1 0 0 0 0 1 0 0 0 0.5 0"/>
<feBlend mode="normal" in2="BackgroundImageFix" result="effect1_dropShadow_122_1016"/>
<feBlend mode="normal" in="SourceGraphic" in2="effect1_dropShadow_122_1016" result="shape"/>
</filter>
</defs>
</svg>
