<svg width="46" height="74" viewBox="0 0 46 74" fill="none" xmlns="http://www.w3.org/2000/svg">
<g filter="url(#filter0_d_122_1009)">
<g filter="url(#filter1_d_122_1009)">
<path d="M13.8745 35.822C13.7013 35.8247 13.5303 35.8612 13.3713 35.9292C13.2123 35.9972 13.0684 36.0954 12.9479 36.2184C12.8273 36.3413 12.7325 36.4865 12.6688 36.6456C12.605 36.8048 12.5737 36.9749 12.5765 37.146V64.6862C12.576 64.943 12.6523 65.1943 12.7959 65.4083C12.9395 65.6224 13.144 65.7897 13.3836 65.8893C13.6232 65.989 13.8873 66.0166 14.1426 65.9685C14.398 65.9205 14.6333 65.7987 14.819 65.6189L22.7101 58.0303L30.6118 65.6189C30.7974 65.7987 31.0327 65.9205 31.2881 65.9685C31.5435 66.0166 31.8076 65.989 32.0472 65.8893C32.2868 65.7897 32.4912 65.6224 32.6348 65.4083C32.7784 65.1943 32.8548 64.943 32.8543 64.6862V37.146C32.8543 36.8004 32.7153 36.4688 32.4679 36.2244C32.2206 35.9801 31.885 35.843 31.5352 35.843C31.1853 35.843 30.8498 35.9801 30.6024 36.2244C30.355 36.4688 30.216 36.8004 30.216 37.146L24.8624 38.9978H22.1322C22.1322 38.9978 21.8591 38.7286 20.767 38.9978C20.4237 38.9978 19.6481 38.7614 19.4019 38.9978L18.0368 37.9211L15.2147 37.146C15.2176 36.9714 15.1849 36.798 15.1185 36.6361C15.0522 36.4742 14.9536 36.3269 14.8286 36.2034C14.7035 36.0799 14.5546 35.9827 14.3907 35.9171C14.2269 35.8516 14.0513 35.8192 13.8745 35.822Z" fill="#900D90"/>
</g>
<g filter="url(#filter2_d_122_1009)">
<path d="M6.56471 18.5439C6.31764 19.4659 4.09039 20.0134 4.00192 20.926C3.91344 21.8385 5.99323 22.8119 6.06335 23.7149C6.12046 24.6665 4.18695 25.8648 4.36712 26.7453C4.59583 27.6388 6.85767 27.9328 7.20944 28.7553C7.54821 29.6262 6.09302 31.3689 6.55485 32.1688C7.00368 33.0173 9.25345 32.5798 9.88688 33.3217C10.4718 34.0506 9.59545 36.1564 10.3164 36.7657C10.9889 37.362 13.0064 36.2381 13.8019 36.7634C14.5619 37.2271 14.4135 39.5279 15.2966 39.9206C16.1796 40.3132 17.7319 38.5966 18.6054 38.8307C19.5275 39.0777 20.075 41.305 20.9875 41.3934C21.9 41.4819 22.8734 39.4021 23.7764 39.332C24.728 39.2749 25.9263 41.2084 26.8068 41.0282C27.7003 40.7995 27.9943 38.5377 28.8168 38.1859C29.6877 37.8471 31.4304 39.3023 32.2303 38.8405C33.0432 38.3301 32.6058 36.0803 33.3347 35.4954C34.0635 34.9105 36.1693 35.7868 36.7786 35.0659C37.3749 34.3934 36.2511 32.3758 36.7763 31.5803C37.24 30.8204 39.5409 30.9687 39.9335 30.0857C40.3262 29.2026 38.6096 27.6504 38.8436 26.7768C39.0907 25.8548 41.3179 25.3073 41.4064 24.3947C41.4949 23.4822 39.4151 22.5088 39.345 21.6058C39.2879 20.6542 41.2214 19.4559 41.0412 18.5754C40.8125 17.6819 38.5507 17.3879 38.1989 16.5654C37.8601 15.6945 39.3153 13.9518 38.8535 13.1519C38.3916 12.352 36.1419 12.7894 35.544 12.1091C34.9591 11.3802 35.8354 9.27438 35.1144 8.66509C34.442 8.0688 32.4244 9.19264 31.6289 8.6674C30.8689 8.2037 31.0173 5.90283 30.1343 5.51018C29.2512 5.11753 27.699 6.83417 26.8254 6.60011C25.9034 6.35305 25.3559 4.1258 24.4433 4.03732C23.5308 3.94885 22.5574 6.02865 21.6544 6.09877C20.7029 6.15588 19.5045 4.22236 18.624 4.40254C17.7305 4.63125 17.4365 6.8931 16.6141 7.24487C15.7431 7.58365 14.0005 6.12845 13.2005 6.59029C12.4006 7.05213 12.8381 9.30191 12.1577 9.89982C11.4288 10.4847 9.32305 9.60839 8.71376 10.3294C8.11747 11.0018 9.24129 13.0194 8.71605 13.8149C8.25234 14.5749 5.9515 14.4265 5.55885 15.3096C5.08214 16.1181 6.75024 17.6573 6.56471 18.5439Z" fill="#284EE8"/>
</g>
<path d="M13.0003 18.9674C12.9608 14.6183 16.5586 11.0205 20.967 11.0007C25.4149 10.9809 29.0523 14.6183 29.0523 19.1058C29.0523 23.4153 25.4742 26.9934 21.1252 27.0329C16.5191 27.0922 13.0399 23.6327 13.0003 18.9674ZM26.3638 18.9871C26.2847 15.9626 23.8334 13.5706 20.9275 13.6694C17.9029 13.7683 15.5702 16.1998 15.6295 19.1453C15.7086 22.0908 18.1994 24.4828 21.1252 24.4235C24.0509 24.3642 26.4429 21.8733 26.3638 18.9871Z" fill="white"/>
<path d="M22.252 35.2564C21.8764 34.9401 21.2833 34.7029 21.2042 34.3273C21.1054 33.8331 21.2042 33.1017 21.5205 32.7458C22.7462 31.4213 24.0707 30.1759 25.3359 28.891C25.8103 28.4363 26.2452 27.9421 26.7394 27.5072C27.372 26.9537 28.2023 26.9734 28.6767 27.527C29.2105 28.1596 29.1709 28.7921 28.5976 29.3852C26.8383 31.1644 25.0789 32.9238 23.2799 34.6831C23.0625 34.9204 22.7066 35.0192 22.252 35.2564Z" fill="white"/>
<path d="M31.7013 12.2855C31.721 13.0367 31.1873 13.61 30.4361 13.6297C29.6651 13.6495 29.1116 13.1157 29.0918 12.3645C29.0721 11.6726 29.6849 11.0203 30.3768 11.0005C31.0884 10.9807 31.6617 11.5343 31.7013 12.2855Z" fill="white"/>
</g>
<defs>
<filter id="filter0_d_122_1009" x="-0.000854492" y="4.03461" width="45.41" height="69.957" filterUnits="userSpaceOnUse" color-interpolation-filters="sRGB">
<feFlood flood-opacity="0" result="BackgroundImageFix"/>
<feColorMatrix in="SourceAlpha" type="matrix" values="0 0 0 0 0 0 0 0 0 0 0 0 0 0 0 0 0 0 127 0" result="hardAlpha"/>
<feOffset dy="4"/>
<feGaussianBlur stdDeviation="2"/>
<feComposite in2="hardAlpha" operator="out"/>
<feColorMatrix type="matrix" values="0 0 0 0 0 0 0 0 0 0 0 0 0 0 0 0 0 0 0.25 0"/>
<feBlend mode="normal" in2="BackgroundImageFix" result="effect1_dropShadow_122_1009"/>
<feBlend mode="normal" in="SourceGraphic" in2="effect1_dropShadow_122_1009" result="shape"/>
</filter>
<filter id="filter1_d_122_1009" x="10.5763" y="33.8218" width="24.278" height="34.1697" filterUnits="userSpaceOnUse" color-interpolation-filters="sRGB">
<feFlood flood-opacity="0" result="BackgroundImageFix"/>
<feColorMatrix in="SourceAlpha" type="matrix" values="0 0 0 0 0 0 0 0 0 0 0 0 0 0 0 0 0 0 127 0" result="hardAlpha"/>
<feOffset/>
<feGaussianBlur stdDeviation="1"/>
<feComposite in2="hardAlpha" operator="out"/>
<feColorMatrix type="matrix" values="0 0 0 0 1 0 0 0 0 1 0 0 0 0 1 0 0 0 0.5 0"/>
<feBlend mode="normal" in2="BackgroundImageFix" result="effect1_dropShadow_122_1009"/>
<feBlend mode="normal" in="SourceGraphic" in2="effect1_dropShadow_122_1009" result="shape"/>
</filter>
<filter id="filter2_d_122_1009" x="1.99915" y="2.03461" width="41.41" height="41.3616" filterUnits="userSpaceOnUse" color-interpolation-filters="sRGB">
<feFlood flood-opacity="0" result="BackgroundImageFix"/>
<feColorMatrix in="SourceAlpha" type="matrix" values="0 0 0 0 0 0 0 0 0 0 0 0 0 0 0 0 0 0 127 0" result="hardAlpha"/>
<feOffset/>
<feGaussianBlur stdDeviation="1"/>
<feComposite in2="hardAlpha" operator="out"/>
<feColorMatrix type="matrix" values="0 0 0 0 1 0 0 0 0 1 0 0 0 0 1 0 0 0 0.5 0"/>
<feBlend mode="normal" in2="BackgroundImageFix" result="effect1_dropShadow_122_1009"/>
<feBlend mode="normal" in="SourceGraphic" in2="effect1_dropShadow_122_1009" result="shape"/>
</filter>
</defs>
</svg>
