<svg width="100%" height="100%" id="svg" viewBox="0 0 1440 590" xmlns="http://www.w3.org/2000/svg"
     class="transition duration-300 ease-in-out delay-150">
    <defs>
        <linearGradient id="gradient" x1="0%" y1="50%" x2="100%" y2="50%">
            <stop offset="5%" stop-color="#0e4637"></stop>
            <stop offset="95%" stop-color="#00d084"></stop>
        </linearGradient>
    </defs>
    <path d="M 0,600 L 0,150 C 119.52153110047843,129.64593301435406 239.04306220095685,109.29186602870813 322,102 C 404.95693779904315,94.70813397129187 451.3492822966508,100.47846889952153 546,114 C 640.6507177033492,127.52153110047847 783.5598086124402,148.79425837320574 877,171 C 970.4401913875598,193.20574162679426 1014.4114832535886,216.3444976076555 1100,213 C 1185.5885167464114,209.6555023923445 1312.7942583732056,179.82775119617224 1440,150 L 1440,600 L 0,600 Z"
          stroke="none" stroke-width="0" fill="url(#gradient)" fill-opacity="0.53"
          class="transition-all duration-300 ease-in-out delay-150 path-0"></path>
    <defs>
        <linearGradient id="gradient" x1="0%" y1="50%" x2="100%" y2="50%">
            <stop offset="5%" stop-color="#0e4637"></stop>
            <stop offset="95%" stop-color="#00d084"></stop>
        </linearGradient>
    </defs>
    <path d="M 0,600 L 0,350 C 84.99521531100481,368.88038277511964 169.99043062200963,387.7607655502392 259,387 C 348.0095693779904,386.2392344497608 441.0334928229664,365.8373205741627 556,358 C 670.9665071770336,350.1626794258373 807.8755980861245,354.88995215311 909,363 C 1010.1244019138755,371.11004784689 1075.4641148325359,382.60287081339715 1158,381 C 1240.5358851674641,379.39712918660285 1340.267942583732,364.6985645933014 1440,350 L 1440,600 L 0,600 Z"
          stroke="none" stroke-width="0" fill="url(#gradient)" fill-opacity="1"
          class="transition-all duration-300 ease-in-out delay-150 path-1"></path>
</svg>
