<svg width="100%" height="100%" id="svg" viewBox="0 0 1440 590" xmlns="http://www.w3.org/2000/svg"
     class="transition duration-300 ease-in-out delay-150">
    <defs>
        <linearGradient id="gradient" x1="0%" y1="50%" x2="100%" y2="50%">
            <stop offset="5%" stop-color="#722880"></stop>
            <stop offset="95%" stop-color="#090e34"></stop>
        </linearGradient>
    </defs>
    <path d="M 0,600 L 0,150 C 81.89473684210523,173.68421052631578 163.78947368421046,197.3684210526316 253,203 C 342.21052631578954,208.6315789473684 438.73684210526324,196.21052631578948 531,168 C 623.2631578947368,139.78947368421052 711.2631578947368,95.78947368421052 814,105 C 916.7368421052632,114.21052631578948 1034.2105263157896,176.63157894736844 1141,193 C 1247.7894736842104,209.36842105263156 1343.8947368421052,179.68421052631578 1440,150 L 1440,600 L 0,600 Z"
          stroke="none" stroke-width="0" fill="url(#gradient)" fill-opacity="0.53"
          class="transition-all duration-300 ease-in-out delay-150 path-0"></path>
    <defs>
        <linearGradient id="gradient" x1="0%" y1="50%" x2="100%" y2="50%">
            <stop offset="5%" stop-color="#722880"></stop>
            <stop offset="95%" stop-color="#090e34"></stop>
        </linearGradient>
    </defs>
    <path d="M 0,600 L 0,350 C 67.78947368421055,332.92822966507174 135.5789473684211,315.85645933014354 238,303 C 340.4210526315789,290.14354066985646 477.47368421052624,281.5023923444976 597,297 C 716.5263157894738,312.4976076555024 818.5263157894736,352.13397129186603 913,378 C 1007.4736842105264,403.86602870813397 1094.4210526315787,415.9617224880382 1181,409 C 1267.5789473684213,402.0382775119618 1353.7894736842106,376.01913875598086 1440,350 L 1440,600 L 0,600 Z"
          stroke="none" stroke-width="0" fill="url(#gradient)" fill-opacity="1"
          class="transition-all duration-300 ease-in-out delay-150 path-1"></path>
</svg>
