<svg width="46" height="74" viewBox="0 0 46 74" fill="none" xmlns="http://www.w3.org/2000/svg">
<g filter="url(#filter0_d_122_1023)">
<g filter="url(#filter1_d_122_1023)">
<path d="M13.8745 35.8221C13.7013 35.8248 13.5303 35.8613 13.3713 35.9293C13.2123 35.9973 13.0684 36.0955 12.9479 36.2184C12.8273 36.3414 12.7325 36.4865 12.6688 36.6457C12.605 36.8048 12.5737 36.9749 12.5765 37.1461V64.6863C12.576 64.9431 12.6523 65.1943 12.7959 65.4084C12.9395 65.6225 13.144 65.7897 13.3836 65.8894C13.6232 65.9891 13.8873 66.0167 14.1426 65.9686C14.398 65.9205 14.6333 65.7988 14.819 65.619L22.7101 58.0304L30.6118 65.619C30.7974 65.7988 31.0327 65.9205 31.2881 65.9686C31.5435 66.0167 31.8076 65.9891 32.0472 65.8894C32.2868 65.7897 32.4912 65.6225 32.6348 65.4084C32.7784 65.1943 32.8548 64.9431 32.8543 64.6863V37.1461C32.8543 36.8005 32.7153 36.4688 32.4679 36.2245C32.2206 35.9801 31.885 35.8431 31.5352 35.8431C31.1853 35.8431 30.8498 35.9801 30.6024 36.2245C30.355 36.4688 30.216 36.8005 30.216 37.1461L24.8624 38.9979H22.1322C22.1322 38.9979 21.8591 38.7287 20.767 38.9979C20.4237 38.9979 19.6481 38.7615 19.4019 38.9979L18.0368 37.9212L15.2147 37.1461C15.2176 36.9714 15.1849 36.798 15.1185 36.6361C15.0522 36.4742 14.9536 36.327 14.8286 36.2035C14.7035 36.08 14.5546 35.9827 14.3907 35.9172C14.2269 35.8517 14.0513 35.8193 13.8745 35.8221Z" fill="#900D90"/>
</g>
<g filter="url(#filter2_d_122_1023)">
<path d="M6.56471 18.5439C6.31764 19.4659 4.09039 20.0134 4.00192 20.926C3.91344 21.8385 5.99323 22.8119 6.06335 23.7149C6.12046 24.6665 4.18695 25.8648 4.36712 26.7453C4.59583 27.6388 6.85767 27.9328 7.20944 28.7553C7.54821 29.6262 6.09302 31.3689 6.55485 32.1688C7.00368 33.0173 9.25345 32.5798 9.88688 33.3217C10.4718 34.0506 9.59545 36.1564 10.3164 36.7657C10.9889 37.362 13.0064 36.2381 13.8019 36.7634C14.5619 37.2271 14.4135 39.5279 15.2966 39.9206C16.1796 40.3132 17.7319 38.5966 18.6054 38.8307C19.5275 39.0777 20.075 41.305 20.9875 41.3934C21.9 41.4819 22.8734 39.4021 23.7764 39.332C24.728 39.2749 25.9263 41.2084 26.8068 41.0282C27.7003 40.7995 27.9943 38.5377 28.8168 38.1859C29.6877 37.8471 31.4304 39.3023 32.2303 38.8405C33.0432 38.3301 32.6058 36.0803 33.3347 35.4954C34.0635 34.9105 36.1693 35.7868 36.7786 35.0659C37.3749 34.3934 36.2511 32.3758 36.7763 31.5803C37.24 30.8204 39.5409 30.9687 39.9335 30.0857C40.3262 29.2026 38.6096 27.6504 38.8436 26.7768C39.0907 25.8548 41.3179 25.3073 41.4064 24.3947C41.4949 23.4822 39.4151 22.5088 39.345 21.6058C39.2879 20.6542 41.2214 19.4559 41.0412 18.5754C40.8125 17.6819 38.5507 17.3879 38.1989 16.5654C37.8601 15.6945 39.3153 13.9518 38.8535 13.1519C38.3916 12.352 36.1419 12.7894 35.544 12.1091C34.9591 11.3802 35.8354 9.27438 35.1144 8.66509C34.442 8.0688 32.4244 9.19264 31.6289 8.6674C30.8689 8.2037 31.0173 5.90283 30.1343 5.51018C29.2512 5.11753 27.699 6.83417 26.8254 6.60011C25.9034 6.35305 25.3559 4.1258 24.4433 4.03732C23.5308 3.94885 22.5574 6.02865 21.6544 6.09877C20.7029 6.15588 19.5045 4.22236 18.624 4.40254C17.7305 4.63125 17.4365 6.8931 16.6141 7.24487C15.7431 7.58365 14.0005 6.12845 13.2005 6.59029C12.4006 7.05213 12.8381 9.30191 12.1577 9.89982C11.4288 10.4847 9.32305 9.60839 8.71376 10.3294C8.11747 11.0018 9.24129 13.0194 8.71605 13.8149C8.25234 14.5749 5.9515 14.4265 5.55885 15.3096C5.08214 16.1181 6.75024 17.6573 6.56471 18.5439Z" fill="#284EE8"/>
</g>
</g>
<defs>
<filter id="filter0_d_122_1023" x="-0.000854492" y="4.03455" width="45.41" height="69.957" filterUnits="userSpaceOnUse" color-interpolation-filters="sRGB">
<feFlood flood-opacity="0" result="BackgroundImageFix"/>
<feColorMatrix in="SourceAlpha" type="matrix" values="0 0 0 0 0 0 0 0 0 0 0 0 0 0 0 0 0 0 127 0" result="hardAlpha"/>
<feOffset dy="4"/>
<feGaussianBlur stdDeviation="2"/>
<feComposite in2="hardAlpha" operator="out"/>
<feColorMatrix type="matrix" values="0 0 0 0 0 0 0 0 0 0 0 0 0 0 0 0 0 0 0.25 0"/>
<feBlend mode="normal" in2="BackgroundImageFix" result="effect1_dropShadow_122_1023"/>
<feBlend mode="normal" in="SourceGraphic" in2="effect1_dropShadow_122_1023" result="shape"/>
</filter>
<filter id="filter1_d_122_1023" x="10.5763" y="33.8219" width="24.278" height="34.1697" filterUnits="userSpaceOnUse" color-interpolation-filters="sRGB">
<feFlood flood-opacity="0" result="BackgroundImageFix"/>
<feColorMatrix in="SourceAlpha" type="matrix" values="0 0 0 0 0 0 0 0 0 0 0 0 0 0 0 0 0 0 127 0" result="hardAlpha"/>
<feOffset/>
<feGaussianBlur stdDeviation="1"/>
<feComposite in2="hardAlpha" operator="out"/>
<feColorMatrix type="matrix" values="0 0 0 0 1 0 0 0 0 1 0 0 0 0 1 0 0 0 0.5 0"/>
<feBlend mode="normal" in2="BackgroundImageFix" result="effect1_dropShadow_122_1023"/>
<feBlend mode="normal" in="SourceGraphic" in2="effect1_dropShadow_122_1023" result="shape"/>
</filter>
<filter id="filter2_d_122_1023" x="1.99915" y="2.03455" width="41.41" height="41.3617" filterUnits="userSpaceOnUse" color-interpolation-filters="sRGB">
<feFlood flood-opacity="0" result="BackgroundImageFix"/>
<feColorMatrix in="SourceAlpha" type="matrix" values="0 0 0 0 0 0 0 0 0 0 0 0 0 0 0 0 0 0 127 0" result="hardAlpha"/>
<feOffset/>
<feGaussianBlur stdDeviation="1"/>
<feComposite in2="hardAlpha" operator="out"/>
<feColorMatrix type="matrix" values="0 0 0 0 1 0 0 0 0 1 0 0 0 0 1 0 0 0 0.5 0"/>
<feBlend mode="normal" in2="BackgroundImageFix" result="effect1_dropShadow_122_1023"/>
<feBlend mode="normal" in="SourceGraphic" in2="effect1_dropShadow_122_1023" result="shape"/>
</filter>
</defs>
</svg>
