<svg width="18" height="19" viewBox="0 0 18 19" fill="none" xmlns="http://www.w3.org/2000/svg">
<path d="M4.30339 12.9302C4.52695 12.9302 4.72257 12.9302 4.93216 12.9302C4.93565 13 4.94264 13.0664 4.94264 13.1293C4.94264 14.53 4.94613 15.9273 4.93914 17.328C4.93914 17.4782 4.98106 17.5201 5.12777 17.5166C5.58537 17.5062 6.04297 17.5132 6.50058 17.5132C6.55647 17.5132 6.61236 17.5132 6.67523 17.5132C6.67523 15.3369 6.67523 13.1817 6.67523 11.0054C6.38879 11.0054 6.10934 11.0054 5.81941 11.0054C5.81941 9.09818 5.81941 7.2084 5.81941 5.30464C6.18619 5.29066 6.50407 5.33957 6.72763 5.67491C7.24112 6.4434 7.77208 7.20141 8.29255 7.9699C8.3694 8.08168 8.44975 8.15154 8.58947 8.18298C9.00515 8.26682 9.42084 8.37161 9.83652 8.46942C9.86447 8.47641 9.8959 8.47291 9.93782 8.47641C10.0356 8.07819 10.1299 7.68696 10.2278 7.28175C10.081 7.24333 9.95179 7.21538 9.82604 7.18045C9.57454 7.11059 9.4907 6.91847 9.62344 6.6949C10.116 5.881 10.6085 5.0706 11.1115 4.26019C11.1464 4.2043 11.2547 4.13793 11.3001 4.1519C11.363 4.17286 11.4329 4.27067 11.4364 4.33704C11.5062 5.2697 11.5691 6.20237 11.6285 7.13853C11.6495 7.4634 11.4818 7.58915 11.1674 7.50531C11.0626 7.47737 10.9578 7.45292 10.8321 7.42497C10.8006 7.54024 10.7657 7.65552 10.7378 7.77428C10.6574 8.09915 10.5771 8.42401 10.5037 8.74887C10.4897 8.80825 10.4967 8.88161 10.5177 8.9375C10.7238 9.48243 10.3011 10.0309 9.73173 9.92256C9.06803 9.79681 8.40783 9.63613 7.75112 9.46496C7.6079 9.42654 7.46468 9.30079 7.36687 9.17853C7.16427 8.92003 6.98961 8.64058 6.80448 8.36812C6.77653 8.3262 6.74509 8.28778 6.69619 8.22141C6.69619 8.96195 6.69619 9.66757 6.69619 10.3732C7.16776 10.5024 7.29352 10.6701 7.29352 11.1626C7.29352 13.2445 7.29352 15.3299 7.29352 17.4119C7.29352 17.6913 7.20968 17.9184 6.95119 18.0511C6.87434 18.0895 6.78701 18.1035 6.70318 18.1314C6.539 18.7253 6.25256 19.0012 5.80195 18.9942C5.35133 18.9873 5.07887 18.7218 4.91818 18.1279C4.64921 18.0616 4.64921 18.0616 4.31736 18.1245C4.31038 18.1524 4.2999 18.1873 4.2964 18.2188C4.21956 18.6764 3.86675 18.9908 3.4336 18.9942C3.00744 18.9977 2.65114 18.6903 2.5708 18.2397C2.55333 18.1489 2.52189 18.1175 2.42758 18.1C2.17258 18.0546 1.98045 17.838 1.95251 17.5795C1.94552 17.5166 1.94552 17.4573 1.94552 17.3944C1.94552 15.302 1.94552 13.2061 1.94552 11.1137C1.94552 10.6701 2.10621 10.4745 2.54285 10.3802C2.54285 9.98544 2.54285 9.58373 2.54285 9.18551C2.53586 9.18202 2.52888 9.17853 2.52189 9.17154C2.49744 9.22044 2.46949 9.27284 2.44504 9.32175C2.09922 10.0798 1.75689 10.8378 1.40758 11.5923C1.16306 12.1337 0.523816 12.235 0.167516 11.7949C-0.021113 11.5608 -0.0490581 11.2989 0.0766948 11.0264C0.628611 9.81078 1.18402 8.59517 1.73943 7.37956C1.96998 6.87305 2.20052 6.37004 2.43107 5.86703C2.63716 5.41292 2.90264 5.25923 3.42312 5.31162C3.42312 7.2049 3.42312 9.09818 3.42312 11.0054C3.13668 11.0054 2.86073 11.0054 2.57429 11.0054C2.57429 13.1747 2.57429 15.3299 2.57429 17.5027C2.62669 17.5062 2.67559 17.5097 2.72449 17.5132C3.19257 17.5132 3.66065 17.5097 4.12873 17.5166C4.26846 17.5201 4.31038 17.4817 4.31038 17.3385C4.30339 15.9343 4.30688 14.53 4.30688 13.1258C4.30339 13.0629 4.30339 13.0035 4.30339 12.9302Z" fill="#62CBA5"/>
<path d="M4.30339 12.9302C4.52695 12.9302 4.72257 12.9302 4.93216 12.9302C4.93565 13 4.94264 13.0664 4.94264 13.1293C4.94264 14.53 4.94613 15.9273 4.93914 17.328C4.93914 17.4782 4.98106 17.5201 5.12777 17.5166C5.58537 17.5062 6.04297 17.5132 6.50058 17.5132C6.55647 17.5132 6.61236 17.5132 6.67523 17.5132C6.67523 15.3369 6.67523 13.1817 6.67523 11.0054C6.38879 11.0054 6.10934 11.0054 5.81941 11.0054C5.81941 9.09818 5.81941 7.2084 5.81941 5.30464C6.18619 5.29066 6.50407 5.33957 6.72763 5.67491C7.24112 6.4434 7.77208 7.20141 8.29255 7.9699C8.3694 8.08168 8.44975 8.15154 8.58947 8.18298C9.00515 8.26682 9.42084 8.37161 9.83652 8.46942C9.86447 8.47641 9.8959 8.47291 9.93782 8.47641C10.0356 8.07819 10.1299 7.68696 10.2278 7.28175C10.081 7.24333 9.95179 7.21538 9.82604 7.18045C9.57454 7.11059 9.4907 6.91847 9.62344 6.6949C10.116 5.881 10.6085 5.0706 11.1115 4.26019C11.1464 4.2043 11.2547 4.13793 11.3001 4.1519C11.363 4.17286 11.4329 4.27067 11.4364 4.33704C11.5062 5.2697 11.5691 6.20237 11.6285 7.13853C11.6495 7.4634 11.4818 7.58915 11.1674 7.50531C11.0626 7.47737 10.9578 7.45292 10.8321 7.42497C10.8006 7.54024 10.7657 7.65552 10.7378 7.77428C10.6574 8.09915 10.5771 8.42401 10.5037 8.74887C10.4897 8.80825 10.4967 8.88161 10.5177 8.9375C10.7238 9.48243 10.3011 10.0309 9.73173 9.92256C9.06803 9.79681 8.40783 9.63613 7.75112 9.46496C7.6079 9.42654 7.46468 9.30079 7.36687 9.17853C7.16427 8.92003 6.98961 8.64058 6.80448 8.36812C6.77653 8.3262 6.74509 8.28778 6.69619 8.22141C6.69619 8.96195 6.69619 9.66757 6.69619 10.3732C7.16776 10.5024 7.29352 10.6701 7.29352 11.1626C7.29352 13.2445 7.29352 15.3299 7.29352 17.4119C7.29352 17.6913 7.20968 17.9184 6.95119 18.0511C6.87434 18.0895 6.78701 18.1035 6.70318 18.1314C6.539 18.7253 6.25256 19.0012 5.80195 18.9942C5.35133 18.9873 5.07887 18.7218 4.91818 18.1279C4.64921 18.0616 4.64921 18.0616 4.31736 18.1245C4.31038 18.1524 4.2999 18.1873 4.2964 18.2188C4.21956 18.6764 3.86675 18.9908 3.4336 18.9942C3.00744 18.9977 2.65114 18.6903 2.5708 18.2397C2.55333 18.1489 2.52189 18.1175 2.42758 18.1C2.17258 18.0546 1.98045 17.838 1.95251 17.5795C1.94552 17.5166 1.94552 17.4573 1.94552 17.3944C1.94552 15.302 1.94552 13.2061 1.94552 11.1137C1.94552 10.6701 2.10621 10.4745 2.54285 10.3802C2.54285 9.98544 2.54285 9.58373 2.54285 9.18551C2.53586 9.18202 2.52888 9.17853 2.52189 9.17154C2.49744 9.22044 2.46949 9.27284 2.44504 9.32175C2.09922 10.0798 1.75689 10.8378 1.40758 11.5923C1.16306 12.1337 0.523816 12.235 0.167516 11.7949C-0.021113 11.5608 -0.0490581 11.2989 0.0766948 11.0264C0.628611 9.81078 1.18402 8.59517 1.73943 7.37956C1.96998 6.87305 2.20052 6.37004 2.43107 5.86703C2.63716 5.41292 2.90264 5.25923 3.42312 5.31162C3.42312 7.2049 3.42312 9.09818 3.42312 11.0054C3.13668 11.0054 2.86073 11.0054 2.57429 11.0054C2.57429 13.1747 2.57429 15.3299 2.57429 17.5027C2.62669 17.5062 2.67559 17.5097 2.72449 17.5132C3.19257 17.5132 3.66065 17.5097 4.12873 17.5166C4.26846 17.5201 4.31038 17.4817 4.31038 17.3385C4.30339 15.9343 4.30688 14.53 4.30688 13.1258C4.30339 13.0629 4.30339 13.0035 4.30339 12.9302Z" fill="black" fill-opacity="0.2"/>
<path d="M6.32581 3.31355C6.26293 4.38245 5.41759 4.96231 4.65609 4.97628C3.94698 4.99025 3.00383 4.49073 2.91301 3.31355C2.43795 3.18081 2.30521 2.98868 2.33665 2.49965C2.34363 2.40882 2.35411 2.31451 2.37158 2.22369C2.59514 1.1478 3.5802 0.368831 4.68054 0.393283C5.84725 0.421228 6.84279 1.37485 6.90567 2.5241C6.93012 2.99218 6.7869 3.19129 6.32581 3.31355ZM4.92855 1.05349C4.92855 1.27006 4.92855 1.48314 4.92855 1.69972C4.92855 1.82896 4.86568 1.92677 4.7504 1.98615C4.63862 2.04204 4.51636 2.03855 4.43602 1.94773C4.36965 1.87437 4.32424 1.76259 4.31376 1.66479C4.2963 1.46218 4.30677 1.25958 4.30677 1.05349C4.00637 1.0989 4.00636 1.0989 4.00636 1.36438C4.00636 1.48664 4.00986 1.61239 4.00287 1.73465C3.99239 1.89533 3.86315 2.0141 3.70945 2.01759C3.55575 2.02109 3.42301 1.90931 3.40205 1.75211C3.39507 1.69972 3.39157 1.64383 3.38459 1.5565C3.09116 1.89883 2.93746 2.25163 2.94096 2.6743C4.07273 2.6743 5.17657 2.6743 6.29088 2.6743C6.28738 2.24814 6.14417 1.89533 5.85424 1.56698C5.84725 1.62636 5.84376 1.65431 5.84026 1.68225C5.8193 1.89883 5.69355 2.02807 5.5154 2.01759C5.34074 2.00711 5.22896 1.87437 5.22547 1.66479C5.22547 1.56348 5.22547 1.45869 5.22547 1.35739C5.22896 1.09191 5.21848 1.08492 4.92855 1.05349Z" fill="#62CBA5"/>
<path d="M6.32581 3.31355C6.26293 4.38245 5.41759 4.96231 4.65609 4.97628C3.94698 4.99025 3.00383 4.49073 2.91301 3.31355C2.43795 3.18081 2.30521 2.98868 2.33665 2.49965C2.34363 2.40882 2.35411 2.31451 2.37158 2.22369C2.59514 1.1478 3.5802 0.368831 4.68054 0.393283C5.84725 0.421228 6.84279 1.37485 6.90567 2.5241C6.93012 2.99218 6.7869 3.19129 6.32581 3.31355ZM4.92855 1.05349C4.92855 1.27006 4.92855 1.48314 4.92855 1.69972C4.92855 1.82896 4.86568 1.92677 4.7504 1.98615C4.63862 2.04204 4.51636 2.03855 4.43602 1.94773C4.36965 1.87437 4.32424 1.76259 4.31376 1.66479C4.2963 1.46218 4.30677 1.25958 4.30677 1.05349C4.00637 1.0989 4.00636 1.0989 4.00636 1.36438C4.00636 1.48664 4.00986 1.61239 4.00287 1.73465C3.99239 1.89533 3.86315 2.0141 3.70945 2.01759C3.55575 2.02109 3.42301 1.90931 3.40205 1.75211C3.39507 1.69972 3.39157 1.64383 3.38459 1.5565C3.09116 1.89883 2.93746 2.25163 2.94096 2.6743C4.07273 2.6743 5.17657 2.6743 6.29088 2.6743C6.28738 2.24814 6.14417 1.89533 5.85424 1.56698C5.84725 1.62636 5.84376 1.65431 5.84026 1.68225C5.8193 1.89883 5.69355 2.02807 5.5154 2.01759C5.34074 2.00711 5.22896 1.87437 5.22547 1.66479C5.22547 1.56348 5.22547 1.45869 5.22547 1.35739C5.22896 1.09191 5.21848 1.08492 4.92855 1.05349Z" fill="black" fill-opacity="0.2"/>
<path d="M13.3751 11.5958C12.7743 11.5958 12.1735 11.5958 11.5726 11.5958C11.2932 11.5958 11.1954 11.4945 11.1919 11.2115C11.1919 10.7993 11.1919 10.3906 11.1919 9.97845C11.1919 9.73393 11.3037 9.62215 11.5517 9.62215C12.7708 9.62215 13.9864 9.62215 15.2055 9.62215C15.45 9.62215 15.5618 9.73393 15.5653 9.98195C15.5688 10.3976 15.5688 10.8133 15.5653 11.229C15.5653 11.484 15.45 11.5923 15.195 11.5923C14.5872 11.5958 13.9829 11.5958 13.3751 11.5958Z" fill="#62CBA5"/>
<path d="M13.3751 11.5958C12.7743 11.5958 12.1735 11.5958 11.5726 11.5958C11.2932 11.5958 11.1954 11.4945 11.1919 11.2115C11.1919 10.7993 11.1919 10.3906 11.1919 9.97845C11.1919 9.73393 11.3037 9.62215 11.5517 9.62215C12.7708 9.62215 13.9864 9.62215 15.2055 9.62215C15.45 9.62215 15.5618 9.73393 15.5653 9.98195C15.5688 10.3976 15.5688 10.8133 15.5653 11.229C15.5653 11.484 15.45 11.5923 15.195 11.5923C14.5872 11.5958 13.9829 11.5958 13.3751 11.5958Z" fill="black" fill-opacity="0.2"/>
<path d="M13.3785 16.4722C12.7777 16.4722 12.1769 16.4722 11.5761 16.4722C11.3001 16.4722 11.1953 16.3674 11.1953 16.0914C11.1953 15.6793 11.1953 15.2706 11.1953 14.8584C11.1953 14.6104 11.3071 14.4986 11.5516 14.4986C12.7707 14.4986 13.9863 14.4986 15.2054 14.4986C15.4465 14.4986 15.5652 14.6138 15.5687 14.8584C15.5722 15.2741 15.5722 15.6897 15.5687 16.1089C15.5687 16.3604 15.4534 16.4757 15.2019 16.4757C14.5906 16.4757 13.9863 16.4722 13.3785 16.4722Z" fill="#62CBA5"/>
<path d="M13.3785 16.4722C12.7777 16.4722 12.1769 16.4722 11.5761 16.4722C11.3001 16.4722 11.1953 16.3674 11.1953 16.0914C11.1953 15.6793 11.1953 15.2706 11.1953 14.8584C11.1953 14.6104 11.3071 14.4986 11.5516 14.4986C12.7707 14.4986 13.9863 14.4986 15.2054 14.4986C15.4465 14.4986 15.5652 14.6138 15.5687 14.8584C15.5722 15.2741 15.5722 15.6897 15.5687 16.1089C15.5687 16.3604 15.4534 16.4757 15.2019 16.4757C14.5906 16.4757 13.9863 16.4722 13.3785 16.4722Z" fill="black" fill-opacity="0.2"/>
<path d="M10.9333 14.0375C10.3325 14.0375 9.73167 14.0375 9.13085 14.0375C8.86187 14.0375 8.75708 13.9327 8.75708 13.6637C8.75708 13.248 8.75708 12.8323 8.75708 12.4167C8.75708 12.1791 8.86886 12.0639 9.10639 12.0639C10.329 12.0639 11.5516 12.0639 12.7742 12.0639C13.0082 12.0639 13.127 12.1826 13.127 12.4132C13.1305 12.8289 13.1305 13.2445 13.127 13.6602C13.127 13.9222 13.0152 14.0375 12.7532 14.0375C12.1454 14.0375 11.5376 14.0375 10.9333 14.0375Z" fill="#62CBA5"/>
<path d="M10.9333 14.0375C10.3325 14.0375 9.73167 14.0375 9.13085 14.0375C8.86187 14.0375 8.75708 13.9327 8.75708 13.6637C8.75708 13.248 8.75708 12.8323 8.75708 12.4167C8.75708 12.1791 8.86886 12.0639 9.10639 12.0639C10.329 12.0639 11.5516 12.0639 12.7742 12.0639C13.0082 12.0639 13.127 12.1826 13.127 12.4132C13.1305 12.8289 13.1305 13.2445 13.127 13.6602C13.127 13.9222 13.0152 14.0375 12.7532 14.0375C12.1454 14.0375 11.5376 14.0375 10.9333 14.0375Z" fill="black" fill-opacity="0.2"/>
<path d="M15.8237 12.0604C16.4211 12.0604 17.0149 12.0604 17.6122 12.0604C17.9022 12.0604 18 12.1582 18 12.4516C18 12.8568 18 13.262 18 13.6707C18 13.9327 17.8952 14.0375 17.6367 14.0375C16.4246 14.0375 15.2124 14.0375 14.0003 14.0375C13.7453 14.0375 13.6335 13.9292 13.6335 13.6707C13.6335 13.255 13.6335 12.8393 13.6335 12.4237C13.6335 12.1791 13.7453 12.0639 13.9898 12.0639C14.6011 12.0604 15.2124 12.0604 15.8237 12.0604Z" fill="#62CBA5"/>
<path d="M15.8237 12.0604C16.4211 12.0604 17.0149 12.0604 17.6122 12.0604C17.9022 12.0604 18 12.1582 18 12.4516C18 12.8568 18 13.262 18 13.6707C18 13.9327 17.8952 14.0375 17.6367 14.0375C16.4246 14.0375 15.2124 14.0375 14.0003 14.0375C13.7453 14.0375 13.6335 13.9292 13.6335 13.6707C13.6335 13.255 13.6335 12.8393 13.6335 12.4237C13.6335 12.1791 13.7453 12.0639 13.9898 12.0639C14.6011 12.0604 15.2124 12.0604 15.8237 12.0604Z" fill="black" fill-opacity="0.2"/>
<path d="M10.9472 16.9333C11.548 16.9333 12.1488 16.9333 12.7496 16.9333C13.0081 16.9333 13.1234 17.0486 13.1234 17.3106C13.1234 17.7227 13.1269 18.1314 13.1234 18.5436C13.1234 18.7951 13.0046 18.9104 12.7531 18.9104C11.541 18.9104 10.3289 18.9104 9.11329 18.9104C8.86178 18.9104 8.75 18.7951 8.75 18.5401C8.75 18.1245 8.75 17.7088 8.75 17.2896C8.75 17.0451 8.86527 16.9298 9.1063 16.9298C9.72459 16.9333 10.3359 16.9333 10.9472 16.9333Z" fill="#62CBA5"/>
<path d="M10.9472 16.9333C11.548 16.9333 12.1488 16.9333 12.7496 16.9333C13.0081 16.9333 13.1234 17.0486 13.1234 17.3106C13.1234 17.7227 13.1269 18.1314 13.1234 18.5436C13.1234 18.7951 13.0046 18.9104 12.7531 18.9104C11.541 18.9104 10.3289 18.9104 9.11329 18.9104C8.86178 18.9104 8.75 18.7951 8.75 18.5401C8.75 18.1245 8.75 17.7088 8.75 17.2896C8.75 17.0451 8.86527 16.9298 9.1063 16.9298C9.72459 16.9333 10.3359 16.9333 10.9472 16.9333Z" fill="black" fill-opacity="0.2"/>
<path d="M15.8236 16.9333C16.4244 16.9333 17.0252 16.9333 17.626 16.9333C17.881 16.9333 17.9963 17.0416 17.9963 17.2966C17.9998 17.7123 17.9998 18.1279 17.9963 18.5436C17.9963 18.8021 17.8845 18.9104 17.633 18.9104C16.4209 18.9104 15.2088 18.9104 13.9932 18.9104C13.7452 18.9104 13.6299 18.7951 13.6299 18.5401C13.6299 18.1245 13.6299 17.7088 13.6299 17.2931C13.6299 17.0521 13.7486 16.9333 13.9897 16.9333C14.601 16.9333 15.2123 16.9333 15.8236 16.9333Z" fill="#62CBA5"/>
<path d="M15.8236 16.9333C16.4244 16.9333 17.0252 16.9333 17.626 16.9333C17.881 16.9333 17.9963 17.0416 17.9963 17.2966C17.9998 17.7123 17.9998 18.1279 17.9963 18.5436C17.9963 18.8021 17.8845 18.9104 17.633 18.9104C16.4209 18.9104 15.2088 18.9104 13.9932 18.9104C13.7452 18.9104 13.6299 18.7951 13.6299 18.5401C13.6299 18.1245 13.6299 17.7088 13.6299 17.2931C13.6299 17.0521 13.7486 16.9333 13.9897 16.9333C14.601 16.9333 15.2123 16.9333 15.8236 16.9333Z" fill="black" fill-opacity="0.2"/>
<path d="M16.9731 11.5958C16.753 11.5958 16.5294 11.5993 16.3094 11.5958C16.0788 11.5923 15.9705 11.484 15.9705 11.2535C15.9671 10.8273 15.9705 10.4011 15.9705 9.97496C15.9705 9.74441 16.0788 9.62914 16.3059 9.62565C16.76 9.62215 17.2106 9.62215 17.6647 9.62565C17.8813 9.62565 17.9966 9.74092 17.9966 9.96099C18.0001 10.3941 18.0001 10.8238 17.9966 11.2569C17.9931 11.4875 17.8848 11.5958 17.6507 11.5958C17.4272 11.5993 17.2001 11.5958 16.9731 11.5958Z" fill="#62CBA5"/>
<path d="M16.9731 11.5958C16.753 11.5958 16.5294 11.5993 16.3094 11.5958C16.0788 11.5923 15.9705 11.484 15.9705 11.2535C15.9671 10.8273 15.9705 10.4011 15.9705 9.97496C15.9705 9.74441 16.0788 9.62914 16.3059 9.62565C16.76 9.62215 17.2106 9.62215 17.6647 9.62565C17.8813 9.62565 17.9966 9.74092 17.9966 9.96099C18.0001 10.3941 18.0001 10.8238 17.9966 11.2569C17.9931 11.4875 17.8848 11.5958 17.6507 11.5958C17.4272 11.5993 17.2001 11.5958 16.9731 11.5958Z" fill="black" fill-opacity="0.2"/>
<path d="M16.973 16.4722C16.7564 16.4722 16.5433 16.4722 16.3268 16.4722C16.0892 16.4722 15.974 16.3604 15.974 16.1264C15.974 15.6967 15.9705 15.2636 15.974 14.8339C15.974 14.6173 16.0892 14.4986 16.3058 14.4986C16.7634 14.4951 17.221 14.4951 17.6751 14.4986C17.8742 14.4986 17.9965 14.6138 17.9965 14.813C18 15.2601 18 15.7072 17.9965 16.1543C17.993 16.3604 17.8742 16.4722 17.6646 16.4757C17.4341 16.4757 17.2035 16.4722 16.973 16.4722Z" fill="#62CBA5"/>
<path d="M16.973 16.4722C16.7564 16.4722 16.5433 16.4722 16.3268 16.4722C16.0892 16.4722 15.974 16.3604 15.974 16.1264C15.974 15.6967 15.9705 15.2636 15.974 14.8339C15.974 14.6173 16.0892 14.4986 16.3058 14.4986C16.7634 14.4951 17.221 14.4951 17.6751 14.4986C17.8742 14.4986 17.9965 14.6138 17.9965 14.813C18 15.2601 18 15.7072 17.9965 16.1543C17.993 16.3604 17.8742 16.4722 17.6646 16.4757C17.4341 16.4757 17.2035 16.4722 16.973 16.4722Z" fill="black" fill-opacity="0.2"/>
<path d="M5.1906 7.74285C4.81334 7.74285 4.43957 7.74285 4.04834 7.74285C4.04834 6.93244 4.04834 6.12552 4.04834 5.30813C4.42909 5.30813 4.80286 5.30813 5.1906 5.30813C5.1906 6.11505 5.1906 6.92545 5.1906 7.74285Z" fill="#62CBA5"/>
<path d="M5.1906 7.74285C4.81334 7.74285 4.43957 7.74285 4.04834 7.74285C4.04834 6.93244 4.04834 6.12552 4.04834 5.30813C4.42909 5.30813 4.80286 5.30813 5.1906 5.30813C5.1906 6.11505 5.1906 6.92545 5.1906 7.74285Z" fill="black" fill-opacity="0.2"/>
</svg>
