<svg width="16" height="19" viewBox="0 0 16 19" fill="none" xmlns="http://www.w3.org/2000/svg">
<path fill-rule="evenodd" clip-rule="evenodd" d="M6.40003 1.18171H12.8001V9.45364C12.8001 9.55818 12.7751 9.66085 12.7276 9.75118C12.6801 9.84151 12.6118 9.91627 12.5297 9.96781C12.4476 10.0194 12.3546 10.0458 12.2602 10.0446C12.1659 10.0433 12.0735 10.0143 11.9926 9.96059L9.60004 8.37002L7.2075 9.96177C7.12647 10.0156 7.03401 10.0445 6.93956 10.0458C6.84511 10.047 6.75207 10.0204 6.66994 9.9687C6.58781 9.91702 6.51954 9.8421 6.47212 9.7516C6.4247 9.66111 6.39982 9.55828 6.40003 9.45364V1.18171Z" fill="#62CBA5"/>
<path fill-rule="evenodd" clip-rule="evenodd" d="M6.40003 1.18171H12.8001V9.45364C12.8001 9.55818 12.7751 9.66085 12.7276 9.75118C12.6801 9.84151 12.6118 9.91627 12.5297 9.96781C12.4476 10.0194 12.3546 10.0458 12.2602 10.0446C12.1659 10.0433 12.0735 10.0143 11.9926 9.96059L9.60004 8.37002L7.2075 9.96177C7.12647 10.0156 7.03401 10.0445 6.93956 10.0458C6.84511 10.047 6.75207 10.0204 6.66994 9.9687C6.58781 9.91702 6.51954 9.8421 6.47212 9.7516C6.4247 9.66111 6.39982 9.55828 6.40003 9.45364V1.18171Z" fill="black" fill-opacity="0.2"/>
<path d="M3.19999 0H13.8667C14.4325 0 14.9751 0.249001 15.3752 0.692227C15.7753 1.13545 16.0001 1.73659 16.0001 2.36341V16.5439C16.0001 17.1707 15.7753 17.7718 15.3752 18.215C14.9751 18.6583 14.4325 18.9073 13.8667 18.9073H3.19999C2.6342 18.9073 2.09157 18.6583 1.69149 18.215C1.29141 17.7718 1.06665 17.1707 1.06665 16.5439V15.3622H2.13332V16.5439C2.13332 16.8573 2.2457 17.1578 2.44574 17.3795C2.64578 17.6011 2.91709 17.7256 3.19999 17.7256H13.8667C14.1496 17.7256 14.4209 17.6011 14.621 17.3795C14.821 17.1578 14.9334 16.8573 14.9334 16.5439V2.36341C14.9334 2.05 14.821 1.74943 14.621 1.52782C14.4209 1.30621 14.1496 1.1817 13.8667 1.1817H3.19999C2.91709 1.1817 2.64578 1.30621 2.44574 1.52782C2.2457 1.74943 2.13332 2.05 2.13332 2.36341V3.54511H1.06665V2.36341C1.06665 1.73659 1.29141 1.13545 1.69149 0.692227C2.09157 0.249001 2.6342 0 3.19999 0V0Z" fill="#62CBA5"/>
<path d="M3.19999 0H13.8667C14.4325 0 14.9751 0.249001 15.3752 0.692227C15.7753 1.13545 16.0001 1.73659 16.0001 2.36341V16.5439C16.0001 17.1707 15.7753 17.7718 15.3752 18.215C14.9751 18.6583 14.4325 18.9073 13.8667 18.9073H3.19999C2.6342 18.9073 2.09157 18.6583 1.69149 18.215C1.29141 17.7718 1.06665 17.1707 1.06665 16.5439V15.3622H2.13332V16.5439C2.13332 16.8573 2.2457 17.1578 2.44574 17.3795C2.64578 17.6011 2.91709 17.7256 3.19999 17.7256H13.8667C14.1496 17.7256 14.4209 17.6011 14.621 17.3795C14.821 17.1578 14.9334 16.8573 14.9334 16.5439V2.36341C14.9334 2.05 14.821 1.74943 14.621 1.52782C14.4209 1.30621 14.1496 1.1817 13.8667 1.1817H3.19999C2.91709 1.1817 2.64578 1.30621 2.44574 1.52782C2.2457 1.74943 2.13332 2.05 2.13332 2.36341V3.54511H1.06665V2.36341C1.06665 1.73659 1.29141 1.13545 1.69149 0.692227C2.09157 0.249001 2.6342 0 3.19999 0V0Z" fill="black" fill-opacity="0.2"/>
<path d="M1.06667 5.90852V5.31767C1.06667 5.16096 1.12286 5.01068 1.22288 4.89987C1.3229 4.78907 1.45856 4.72682 1.60001 4.72682C1.74146 4.72682 1.87711 4.78907 1.97713 4.89987C2.07715 5.01068 2.13334 5.16096 2.13334 5.31767V5.90852H2.66668C2.80813 5.90852 2.94378 5.97077 3.0438 6.08158C3.14382 6.19238 3.20001 6.34267 3.20001 6.49937C3.20001 6.65608 3.14382 6.80636 3.0438 6.91717C2.94378 7.02798 2.80813 7.09023 2.66668 7.09023H0.533336C0.391886 7.09023 0.25623 7.02798 0.15621 6.91717C0.0561906 6.80636 0 6.65608 0 6.49937C0 6.34267 0.0561906 6.19238 0.15621 6.08158C0.25623 5.97077 0.391886 5.90852 0.533336 5.90852H1.06667ZM1.06667 9.45364V8.86278C1.06667 8.70608 1.12286 8.55579 1.22288 8.44499C1.3229 8.33418 1.45856 8.27193 1.60001 8.27193C1.74146 8.27193 1.87711 8.33418 1.97713 8.44499C2.07715 8.55579 2.13334 8.70608 2.13334 8.86278V9.45364H2.66668C2.80813 9.45364 2.94378 9.51588 3.0438 9.62669C3.14382 9.7375 3.20001 9.88778 3.20001 10.0445C3.20001 10.2012 3.14382 10.3515 3.0438 10.4623C2.94378 10.5731 2.80813 10.6353 2.66668 10.6353H0.533336C0.391886 10.6353 0.25623 10.5731 0.15621 10.4623C0.0561906 10.3515 0 10.2012 0 10.0445C0 9.88778 0.0561906 9.7375 0.15621 9.62669C0.25623 9.51588 0.391886 9.45364 0.533336 9.45364H1.06667ZM1.06667 12.9987V12.4079C1.06667 12.2512 1.12286 12.1009 1.22288 11.9901C1.3229 11.8793 1.45856 11.817 1.60001 11.817C1.74146 11.817 1.87711 11.8793 1.97713 11.9901C2.07715 12.1009 2.13334 12.2512 2.13334 12.4079V12.9987H2.66668C2.80813 12.9987 2.94378 13.061 3.0438 13.1718C3.14382 13.2826 3.20001 13.4329 3.20001 13.5896C3.20001 13.7463 3.14382 13.8966 3.0438 14.0074C2.94378 14.1182 2.80813 14.1805 2.66668 14.1805H0.533336C0.391886 14.1805 0.25623 14.1182 0.15621 14.0074C0.0561906 13.8966 0 13.7463 0 13.5896C0 13.4329 0.0561906 13.2826 0.15621 13.1718C0.25623 13.061 0.391886 12.9987 0.533336 12.9987H1.06667Z" fill="#62CBA5"/>
<path d="M1.06667 5.90852V5.31767C1.06667 5.16096 1.12286 5.01068 1.22288 4.89987C1.3229 4.78907 1.45856 4.72682 1.60001 4.72682C1.74146 4.72682 1.87711 4.78907 1.97713 4.89987C2.07715 5.01068 2.13334 5.16096 2.13334 5.31767V5.90852H2.66668C2.80813 5.90852 2.94378 5.97077 3.0438 6.08158C3.14382 6.19238 3.20001 6.34267 3.20001 6.49937C3.20001 6.65608 3.14382 6.80636 3.0438 6.91717C2.94378 7.02798 2.80813 7.09023 2.66668 7.09023H0.533336C0.391886 7.09023 0.25623 7.02798 0.15621 6.91717C0.0561906 6.80636 0 6.65608 0 6.49937C0 6.34267 0.0561906 6.19238 0.15621 6.08158C0.25623 5.97077 0.391886 5.90852 0.533336 5.90852H1.06667ZM1.06667 9.45364V8.86278C1.06667 8.70608 1.12286 8.55579 1.22288 8.44499C1.3229 8.33418 1.45856 8.27193 1.60001 8.27193C1.74146 8.27193 1.87711 8.33418 1.97713 8.44499C2.07715 8.55579 2.13334 8.70608 2.13334 8.86278V9.45364H2.66668C2.80813 9.45364 2.94378 9.51588 3.0438 9.62669C3.14382 9.7375 3.20001 9.88778 3.20001 10.0445C3.20001 10.2012 3.14382 10.3515 3.0438 10.4623C2.94378 10.5731 2.80813 10.6353 2.66668 10.6353H0.533336C0.391886 10.6353 0.25623 10.5731 0.15621 10.4623C0.0561906 10.3515 0 10.2012 0 10.0445C0 9.88778 0.0561906 9.7375 0.15621 9.62669C0.25623 9.51588 0.391886 9.45364 0.533336 9.45364H1.06667ZM1.06667 12.9987V12.4079C1.06667 12.2512 1.12286 12.1009 1.22288 11.9901C1.3229 11.8793 1.45856 11.817 1.60001 11.817C1.74146 11.817 1.87711 11.8793 1.97713 11.9901C2.07715 12.1009 2.13334 12.2512 2.13334 12.4079V12.9987H2.66668C2.80813 12.9987 2.94378 13.061 3.0438 13.1718C3.14382 13.2826 3.20001 13.4329 3.20001 13.5896C3.20001 13.7463 3.14382 13.8966 3.0438 14.0074C2.94378 14.1182 2.80813 14.1805 2.66668 14.1805H0.533336C0.391886 14.1805 0.25623 14.1182 0.15621 14.0074C0.0561906 13.8966 0 13.7463 0 13.5896C0 13.4329 0.0561906 13.2826 0.15621 13.1718C0.25623 13.061 0.391886 12.9987 0.533336 12.9987H1.06667Z" fill="black" fill-opacity="0.2"/>
</svg>
